# xmcd CD database file
#
# Track frame offsets:
#	183
#	29390
#	50215
#	69365
#	106130
#	133828
#	153800
#	174545
#	190405
#	206765
#	223588
#	251050
#
# Disc length: 3567 seconds
#
# Revision: 1
# Processed by: cddbd v1.5.2PL0 Copyright (c) Steve Scherf et al.
# Submitted via: CDex 1.70beta2
#
DISCID=b20ded0c
DTITLE=Don Ellis - How Time Passes Les genies du jazz vol6   5
DYEAR=1900
DGENRE=Jazz
TTITLE0=How Time Passes
TTITLE1=Sallie
TTITLE2=A Simplex One
TTITLE3=Waste
TTITLE4=Sweet and Lovely
TTITLE5=My Funny Valentine
TTITLE6=I Love You
TTITLE7=I'll Remember April
TTITLE8=Just One of Those Things
TTITLE9=You Stepped out of a Dream
TTITLE10=All Things You Are
TTITLE11=Out of Nowhere
EXTD=
EXTT0=
EXTT1=
EXTT2=
EXTT3=
EXTT4=
EXTT5=
EXTT6=
EXTT7=
EXTT8=
EXTT9=
EXTT10=
EXTT11=
PLAYORDER=
